<svg id="Ebene_1" data-name="Ebene 1" xmlns="http://www.w3.org/2000/svg" viewBox="0 0 132.54 132.54">
  <defs>
    <style>
      .cls-1 {
        fill: #fff;
      }
    </style>
  </defs>
  <path class="cls-1" d="M7211.53,7196l54.21-54.21c.52-8.05-6.86-10.22-10.59-6.49L7203,7187.47a4.93,4.93,0,0,1-7,0l-54.21-54.21c-8.05-.52-10.22,6.86-6.49,10.59l52.16,52.16a4.93,4.93,0,0,1,0,7l-54.21,54.21c-.52,8.05,6.86,10.22,10.59,6.49l52.16-52.16a4.93,4.93,0,0,1,7,0l54.21,54.21c8.05.52,10.22-6.86,6.49-10.59L7211.53,7203A4.93,4.93,0,0,1,7211.53,7196Z" transform="translate(-7133.23 -7133.23)"/>
</svg>
