<svg xmlns="http://www.w3.org/2000/svg" viewBox="0 0 200 200">
  <defs>
    <style>
      .cls-1 {
        fill: #222831;
      }

      .cls-2 {
        fill: #ddd;
      }
    </style>
  </defs>
  <g id="Ebene_1" data-name="Ebene 1">
    <rect class="cls-1" x="-1.22" y="-1.22" width="201.22" height="201.22"/>
    <path class="cls-2" d="M151.41,120.41c0,14.05-14.42,19.42-20.2,19.61a2.17,2.17,0,0,1-.36,0H69.15c-5.56,0-20.55-5.29-20.55-19.63V104.15c-5.06.29-8.44.71-9.41,1.28v16.5a55.1,55.1,0,0,0,54.93,54.94h11.76a55.1,55.1,0,0,0,54.94-54.94V104.57l-9.41-.22ZM127.83,44.19H72.18a33.09,33.09,0,0,0-33,33v9.35C70.27,80.79,120.74,77,160.82,85V77.18A33.09,33.09,0,0,0,127.83,44.19Z"/>
    <path class="cls-2" d="M127.54,113v11.64a12.37,12.37,0,0,0-12.31,0V113a6.16,6.16,0,0,1,12.31,0Z"/>
    <path class="cls-2" d="M86,114v10.63a12.33,12.33,0,0,0-12.29,0V114a6.16,6.16,0,0,1,10.5-4.36A6.26,6.26,0,0,1,86,114Z"/>
    <path class="cls-1" d="M85.08,41.78c0,28.3-17.15,34.92-17.15,34.92S99.1,74,106,43.09A63.85,63.85,0,0,0,85.08,41.78Z"/>
    <path class="cls-1" d="M104.92,38.87C103.59,59.5,93.66,71.71,93.66,71.71s15.25-8,29.51-33.17C111.79,35.91,104.92,38.87,104.92,38.87Z"/>
    <path class="cls-1" d="M119.67,32.64a79.55,79.55,0,0,1-11.26,32.84s14.76-8.89,29.51-33.17C126.54,29.68,119.67,32.64,119.67,32.64Z"/>
    <g>
      <path class="cls-2" d="M180.69,87.18h-7.22c-.29,0-.85.06-.85-.67V81.89c0-15.73-4.44-28-13.21-36.46-12.47-12-29.16-11.92-30.78-11.88l-28.63,0-28.62,0c-1.63,0-18.31-.14-30.78,11.88-8.77,8.46-13.22,20.73-13.22,36.46v4.62c0,.73-.55.67-.84.67H19.31A3.72,3.72,0,0,0,15.6,90.9v30.44a3.72,3.72,0,0,0,3.71,3.71H30.25a2.86,2.86,0,0,0,2.87-2.86V81.89c0-14.09,3.84-25,11.42-32.28C55.59,38.9,71.13,39.28,71.28,39.28h.18l28.54,0,28.54,0h.19c.15,0,15.69-.38,26.74,10.33,7.58,7.33,11.42,18.19,11.42,32.28v40.3a2.86,2.86,0,0,0,2.86,2.86h10.94a3.72,3.72,0,0,0,3.72-3.71V90.9A3.73,3.73,0,0,0,180.69,87.18Z"/>
      <rect class="cls-2" x="186.11" y="95.06" width="4.99" height="23.27" rx="1.67"/>
      <rect class="cls-2" x="8.91" y="95.06" width="4.99" height="23.27" rx="1.67"/>
    </g>
  </g>
</svg>
