<svg xmlns="http://www.w3.org/2000/svg" viewBox="0 0 182.19 143.35">
  <defs>
    <style>
      .cls-1 {
        fill: #ddd;
      }
    </style>
  </defs>
  <g id="Ebene_2" data-name="Ebene 2">
    <g id="Ebene_1-2" data-name="Ebene 1">
      <path class="cls-1" d="M142.5,70.83V86.89c0,14-14.41,19.42-20.2,19.61a2.17,2.17,0,0,1-.36,0H60.25c-5.57,0-20.56-5.29-20.56-19.63V70.63c-5.06.29-8.44.71-9.41,1.28v16.5a55.1,55.1,0,0,0,54.94,54.94H97a55.1,55.1,0,0,0,54.94-54.94V71.05Zm-21.59-60.1c-11.38,15-21,21-21.39,21.22a73.63,73.63,0,0,0,7.19-15.15C95.31,32.48,85.14,38,84.76,38.18c.24-.3,5.49-6.92,8.78-18.44C83,41.12,59,43.18,59,43.18s16.17-6.24,17.11-32.51H63.27a33.09,33.09,0,0,0-33,33V53c31.08-5.74,81.55-9.56,121.63-1.49V43.66A33.1,33.1,0,0,0,120.91,10.73Z"/>
      <path class="cls-1" d="M118.63,79.5V91.14a12.37,12.37,0,0,0-12.31,0V79.5a6.18,6.18,0,0,1,6.17-6.15,6.24,6.24,0,0,1,4.33,1.79A6.14,6.14,0,0,1,118.63,79.5Z"/>
      <path class="cls-1" d="M77.07,80.5V91.14a12.33,12.33,0,0,0-12.29,0V80.5a6.15,6.15,0,1,1,12.29,0Z"/>
      <g>
        <path class="cls-1" d="M171.79,53.66h-7.23c-.29,0-.84.06-.84-.67V48.36c0-15.73-4.45-28-13.22-36.45C138-.12,121.35,0,119.72,0L91.1,0,62.47,0C60.85,0,44.16-.12,31.69,11.91c-8.77,8.46-13.21,20.72-13.21,36.45V53c0,.73-.56.67-.85.67H10.41a3.72,3.72,0,0,0-3.72,3.71V87.82a3.72,3.72,0,0,0,3.72,3.71H21.35a2.86,2.86,0,0,0,2.86-2.87V48.36c0-14.08,3.84-24.94,11.42-32.28,11-10.7,26.59-10.32,26.74-10.32h.19l28.54,0,28.54,0h.18c.15,0,15.69-.38,26.74,10.32C154.14,23.42,158,34.28,158,48.36v40.3a2.86,2.86,0,0,0,2.87,2.87h10.94a3.72,3.72,0,0,0,3.71-3.71V57.37A3.72,3.72,0,0,0,171.79,53.66Z"/>
        <rect class="cls-1" x="177.2" y="61.54" width="4.99" height="23.27" rx="1.67"/>
        <rect class="cls-1" y="61.54" width="4.99" height="23.27" rx="1.67"/>
      </g>
    </g>
  </g>
</svg>
