<svg xmlns="http://www.w3.org/2000/svg" viewBox="0 0 1000 1000">
  <defs>
    <style>
      .cls-1 {
        fill: #ddd;
      }
    </style>
  </defs>
  <g id="Ebene_3" data-name="Ebene 3">
    <g>
      <path class="cls-1" d="M724,0H276C123.79,0,0,123.8,0,276V724c0,152.17,123.79,276,276,276H724c152.18,0,276-123.8,276-276V276C1000,123.8,876.21,0,724,0ZM911.28,724c0,103.24-84,187.24-187.24,187.24H276c-103.24,0-187.24-84-187.24-187.24V276c0-103.24,84-187.24,187.24-187.24H724c103.25,0,187.25,84,187.25,187.24V724Z"/>
      <path class="cls-1" d="M500,242.34c-142.08,0-257.67,115.59-257.67,257.67S357.92,757.67,500,757.67,757.67,642.09,757.67,500,642.08,242.34,500,242.34Zm0,426.6c-93.16,0-168.95-75.78-168.95-168.93s75.79-168.95,169-168.95,169,75.78,169,169S593.16,668.94,500,668.94Z"/>
      <path class="cls-1" d="M768.48,167.1a65,65,0,1,0,46,19.05A65.31,65.31,0,0,0,768.48,167.1Z"/>
    </g>
  </g>
</svg>
