<svg xmlns="http://www.w3.org/2000/svg" viewBox="0 0 1000 1000">
  <defs>
    <style>
      .cls-1 {
        fill: #ddd;
      }
    </style>
  </defs>
  <g id="Ebene_3" data-name="Ebene 3">
    <path class="cls-1" d="M977.56,259.69a125.58,125.58,0,0,0-88.44-88.43c-77.54-21.15-389.62-21.15-389.62-21.15s-312.09.64-389.63,21.79a125.59,125.59,0,0,0-88.43,88.43c-23.46,137.78-32.56,347.72.64,480a125.59,125.59,0,0,0,88.43,88.43c77.54,21.15,389.63,21.15,389.63,21.15s312.08,0,389.63-21.15a125.59,125.59,0,0,0,88.43-88.43C1002.94,602.35,1010.56,392.54,977.56,259.69ZM400.17,650V350.05l258.9,150Z"/>
  </g>
</svg>
