<svg xmlns="http://www.w3.org/2000/svg" viewBox="0 0 1000 1000">
  <defs>
    <style>
      .cls-1 {
        fill: #ddd;
        fill-rule: evenodd;
      }
    </style>
  </defs>
  <g id="Ebene_3" data-name="Ebene 3">
    <path class="cls-1" d="M500,14.06C224.85,14.06,1.75,237.13,1.75,512.33c0,220.12,142.75,406.86,340.76,472.76,24.91,4.57,34-10.81,34-24,0-11.83-.44-43.16-.68-84.74C237.25,906.44,208,809.54,208,809.54c-22.65-57.56-55.32-72.88-55.32-72.88-45.23-30.92,3.43-30.29,3.43-30.29,50,3.52,76.31,51.35,76.31,51.35,44.45,76.14,116.62,54.15,145,41.4,4.52-32.2,17.4-54.16,31.63-66.61-110.64-12.58-226.95-55.32-226.95-246.25,0-54.4,19.41-98.87,51.28-133.7-5.12-12.61-22.22-63.26,4.89-131.86,0,0,41.83-13.4,137,51.08C415,260.72,457.66,255.2,500,255c42.31.2,84.94,5.72,124.74,16.78,95.12-64.48,136.88-51.08,136.88-51.08,27.18,68.6,10.08,119.25,5,131.86,31.94,34.83,51.22,79.3,51.22,133.7,0,191.4-116.5,233.52-227.49,245.86,17.89,15.38,33.82,45.79,33.82,92.27,0,66.61-.61,120.34-.61,136.68,0,13.32,9,28.83,34.26,24,197.82-66,340.45-252.64,340.45-472.7C998.25,237.13,775.15,14.06,500,14.06Z"/>
  </g>
</svg>
